<?xml version="1.0" encoding="utf-8"?>
<!-- Generator: Adobe Illustrator 19.2.1, SVG Export Plug-In . SVG Version: 6.00 Build 0)  -->
<svg version="1.1" xmlns="http://www.w3.org/2000/svg" xmlns:xlink="http://www.w3.org/1999/xlink" x="0px" y="0px"
	 viewBox="0 0 1024 1024" style="enable-background:new 0 0 1024 1024;" xml:space="preserve">
<style type="text/css">
	.st0{fill:#688037;stroke:#000000;stroke-width:3;stroke-miterlimit:10;}
	.st1{display:none;fill:none;stroke:#000000;stroke-width:3;stroke-miterlimit:10;}
	.st2{fill:#4A7A3B;}
	.st3{fill:#528942;}
	.st4{fill:url(#SVGID_1_);stroke:#000000;stroke-width:3;stroke-miterlimit:10;}
	.st5{fill:#DDAC27;}
	.st6{fill:#FDDA5A;}
	.st7{fill:#FECD09;}
	.st8{fill:#FFFFFF;}
	.st9{fill:#D08129;}
	.st10{fill:#688037;}
	.st11{fill:#FED302;}
	.st12{display:none;}
</style>
<g id="Layer_4">
	<path class="st0" d="M268.2,243.9c0,7.5-10.9,17.8-11.8,18.9c-9,11.2-18.3,22.2-26.8,33.9c0,0-9.9,13.5-14.2,16.3
		c-4.3,2.8,1.4,9.3,5.8,11.4s10.9,2.2,11.8,0c0.9-2.2,0.1-11.9,4-16.9c9.8-12.8,25.3-29.1,35.5-41.6c0,0-2.9-2.9-3.4-4
		C267.3,258.4,268.2,243.9,268.2,243.9"/>
	<path class="st1" d="M196.2,398c8.1-10.4,16-21,24.3-31.3c2.6-3.3,5.7-2,8.5,0.8c18.3,17.9,38.2,33.4,61.7,44.2
		c31.2,14.3,63.7,24.5,97.3,31.2c16.5,3.3,33.4,3.4,49.1-3.4c10.9-4.7,21.6-4.8,32.7-3.6c16.7,1.8,32.5-1.8,47.8-7.7
		c10.7-4.1,21-9.3,31.5-13.8c6.2-2.7,11.2-6.5,16-11.5c8.3-8.7,12.1-19.8,17.3-30.1c4.2-8.3,7.5-16.9,11.4-25.3
		c2.2-4.8,2.2-8.7-1.6-13.1c-6.4-7.6-13.4-15.2-17.5-24c-7.2-15.5-15-30.2-25.9-43.6c-18.8-23.2-42.3-38-71.8-43.4
		c-6.2-1.1-12.3-3-18.2-5.3c-18-7-36.5-11.7-55.9-11.6c-11.5,0.1-23,0.1-34.4,1.1c-13.4,1.2-26.7,3.1-39.9,5.6
		c-9.6,1.8-18.9,5.2-28.4,7.7c-12,3.2-23.3,7.6-33.4,15.2c-13.8,10.5-25.8,22.5-35.6,36.7c-13.9,20.1-20.4,41.7-11.5,65.9
		c3.4,9.4,2.1,13.7-5.3,20.1c-0.9,0.8-1.8,1.5-2.5,2.4c-7.4,9.2-15,18.2-21.9,27.7c0,0-8.1,11.1-11.6,13.4s1.2,7.6,4.8,9.3
		c3.6,1.8,8.9,1.8,9.7,0C193.8,410,193.1,402.1,196.2,398z"/>
	<g>
		<path class="st2" d="M266,262.3c5.4,1.7,7.6,4.6,11.1,8c22.3,21.9,46.7,40.8,75.3,54c38.1,17.5,77.8,29.9,118.8,38.1
			c20.1,4,40.8,4.2,60-4.1c13.3-5.7,26.4-5.8,40-4.4c20.4,2.2,39.7-2.2,58.4-9.4c13.1-5,25.6-11.4,38.5-16.9
			c7.6-3.2,13.7-8,19.5-14.1c10.2-10.7,14.8-24.1,21.2-36.8c5.1-10.1,9.2-20.7,14-30.9c2.7-5.9,2.7-10.6-2-16
			c-7.8-9.2-16.3-18.6-21.3-29.3c-8.8-18.9-18.3-36.9-31.6-53.3c-23-28.4-51.7-46.4-87.7-52.9c-7.5-1.4-15-3.7-22.2-6.5
			c-22-8.5-44.5-14.3-68.3-14.2c-14,0.1-28.1,0.1-42,1.4c-16.3,1.5-32.6,3.8-48.8,6.9c-11.7,2.2-23.1,6.3-34.6,9.4
			c-14.6,3.9-28.5,9.3-40.7,18.6c-16.8,12.8-31.5,27.5-43.5,44.9c-17,24.6-24.9,50.9-14.1,80.5C270.1,246.7,268.7,254.1,266,262.3z"
			/>
		<path d="M267.5,261.5c0.3,0,0.6,0.1,1,0.2c0.5,0.1,1,0.2,1.6,0.4c1.2,0.4,2.7,1.1,4.2,2.2c1.5,1.1,3,2.5,4.5,3.9
			c1.5,1.5,3.3,3.2,5.3,5.1c1.9,1.8,4.1,3.8,6.4,5.9c4.7,4.2,10.2,9,16.6,14c12.7,10,29.1,21.2,49.7,30.5
			c20.6,9.5,44.6,18.7,71.5,26.6c6.7,2,13.6,3.8,20.7,5.6c7.1,1.7,14.3,3.4,21.7,4.9c1.8,0.4,3.7,0.7,5.6,1.1
			c0.9,0.2,1.9,0.3,2.8,0.5c0.9,0.1,1.9,0.3,2.8,0.4c3.8,0.5,7.6,0.9,11.4,1c3.9,0.1,7.7,0.1,11.6-0.2c3.9-0.3,7.8-0.9,11.7-1.7
			c3.9-0.9,7.7-2,11.4-3.4c1.8-0.7,3.8-1.5,5.7-2.3c2-0.7,4-1.4,6-1.9c8.2-2.2,16.8-2.5,25.3-1.9c2.1,0.1,4.3,0.3,6.4,0.6l3.2,0.3
			c1.1,0.1,2.1,0.1,3.1,0.2c4.2,0.2,8.4,0.1,12.7-0.2c8.5-0.7,17-2.4,25.3-4.8c8.4-2.4,16.6-5.6,24.7-9.2c8.1-3.5,16.3-7.4,24.6-11
			c2.1-0.9,4.2-1.7,6.1-2.8c2-1,3.9-2.2,5.7-3.4c3.6-2.5,7-5.6,10.1-8.8c1.6-1.7,3-3.3,4.4-5.2c1.4-1.8,2.6-3.7,3.8-5.6
			c2.4-3.9,4.4-7.9,6.4-12.1c2-4.1,3.9-8.4,5.9-12.5c2.1-4.1,4-8.3,5.9-12.5c1.9-4.2,3.7-8.5,5.6-12.8c0.9-2.1,1.9-4.3,2.9-6.4
			c0.2-0.5,0.5-1.1,0.7-1.6c0.2-0.5,0.4-1,0.6-1.5c0.3-1,0.5-2.1,0.6-3.2c0.2-2.1-0.4-4.2-1.5-6.1c-0.5-0.9-1.2-1.8-1.9-2.7
			l-2.3-2.7c-3-3.6-6.1-7.1-9-10.8c-2.9-3.7-5.6-7.6-8-11.7c-1.2-2.1-2.2-4.2-3.2-6.3c-1-2.1-2-4.2-3-6.3
			c-8.2-16.8-17.5-33.1-29.6-47.2c-11.9-14.2-26.1-26.4-42.2-35.2c-8-4.4-16.5-7.9-25.1-10.6c-4.3-1.3-8.7-2.5-13.1-3.4
			c-2.2-0.4-4.4-0.9-6.7-1.3c-2.3-0.5-4.5-1-6.7-1.6c-4.4-1.2-8.7-2.6-12.9-4.3c-4.2-1.6-8.4-3.2-12.6-4.6
			c-8.4-2.8-16.9-5.2-25.5-6.9c-4.3-0.8-8.6-1.5-12.9-2c-4.3-0.5-8.6-0.8-12.9-0.9c-4.3-0.1-8.6,0-12.8,0c-4.3,0-8.5,0.1-12.7,0.2
			c-16.9,0.3-33.2,2.2-49.1,4.5c-7.9,1.2-15.8,2.6-23.4,4.1c-7.6,1.6-14.9,4-22.1,6.2c-3.6,1.1-7.3,2.2-10.8,3.2
			c-3.6,1-7.1,2.1-10.5,3.3c-6.8,2.4-13.3,5.3-19.3,8.8c-3,1.7-5.8,3.6-8.5,5.7c-1.3,1-2.7,2.1-4,3.1c-1.3,1.1-2.6,2.1-3.9,3.2
			c-5.1,4.3-9.9,8.7-14.3,13.2c-8.9,9-16.5,18.4-22.6,27.9c-1.6,2.4-3,4.7-4.4,7.1c-1.3,2.4-2.6,4.7-3.7,7.1c-1.2,2.3-2.1,4.7-3.1,7
			c-0.5,1.2-0.9,2.3-1.3,3.5c-0.4,1.1-0.8,2.3-1.1,3.5c-2.9,9.2-3.7,18-3.3,25.9c0.4,7.9,2.1,14.9,4.1,20.7c0.2,0.8,0.5,1.5,0.7,2.2
			c0.2,0.7,0.5,1.4,0.7,2.2c0.4,1.5,0.8,3,1,4.4c0.5,2.8,0.6,5.4,0.5,7.8c-0.3,4.7-1.5,8-2.2,10.2C268,260.3,267.7,261,267.5,261.5z
			 M265.1,262c0,0,0.2-1.1,0.6-3.3c0.4-2.2,1-5.4,0.8-9.5c-0.1-2.1-0.4-4.3-0.9-6.8c-0.3-1.2-0.7-2.5-1.1-3.8
			c-0.2-0.6-0.5-1.4-0.7-2.1c-0.2-0.7-0.5-1.5-0.8-2.2c-2.2-6.1-3.9-13.6-4.4-22c0-1.1-0.1-2.1-0.1-3.2c0-1.1,0.1-2.2,0.1-3.3
			c0.1-1.1,0-2.2,0.2-3.4c0.1-1.1,0.2-2.3,0.4-3.4c0.6-4.6,1.6-9.4,3.2-14.2c0.4-1.2,0.7-2.4,1.2-3.6c0.5-1.2,0.9-2.4,1.4-3.7
			c1.1-2.4,2.1-4.9,3.4-7.3c1.2-2.5,2.6-4.8,4-7.3c1.5-2.4,3-4.9,4.6-7.2c6.5-9.6,14.4-19.1,23.6-28.1c4.6-4.5,9.6-8.9,14.8-13.2
			c1.3-1.1,2.7-2.1,4-3.2c1.4-1,2.7-2.1,4.1-3.1c2.8-2.1,5.8-4,8.9-5.7c6.2-3.5,12.9-6.3,19.9-8.7c3.5-1.2,7.1-2.2,10.7-3.2
			c3.6-1,7.2-2,10.8-3c7.3-2.1,14.6-4.4,22.4-6c7.7-1.5,15.5-2.8,23.5-4c15.9-2.3,32.4-4.2,49.4-4.5c4.2-0.1,8.5-0.1,12.8-0.2
			c4.3,0,8.6-0.1,12.9,0c4.3,0.1,8.7,0.5,13,0.9c4.3,0.5,8.7,1.2,13,2c8.7,1.7,17.2,4.1,25.7,6.9c4.2,1.4,8.5,3,12.6,4.6
			c4.2,1.6,8.4,3,12.7,4.2c2.2,0.6,4.3,1.1,6.5,1.6c2.2,0.5,4.5,0.9,6.7,1.4c4.5,1,8.9,2.1,13.3,3.5c8.8,2.7,17.3,6.3,25.5,10.8
			c16.3,8.9,30.7,21.3,42.7,35.7c12.2,14.3,21.6,30.8,29.8,47.6c1,2.1,2.1,4.2,3,6.3c1,2.1,2,4.2,3.1,6.2c2.3,4,5,7.8,7.8,11.5
			c2.9,3.7,5.9,7.2,8.9,10.7l2.3,2.7c0.8,0.9,1.5,1.9,2.1,3c1.2,2.1,2,4.7,1.8,7.3c-0.1,1.3-0.3,2.5-0.7,3.7
			c-0.2,0.6-0.4,1.2-0.6,1.7c-0.2,0.6-0.5,1.1-0.7,1.6c-1,2.1-1.9,4.2-2.8,6.4c-1.9,4.3-3.7,8.5-5.6,12.8c-1.9,4.2-3.8,8.5-5.9,12.6
			c-2,4.1-3.9,8.3-5.9,12.5c-2,4.2-4.1,8.3-6.5,12.3c-1.2,2-2.5,3.9-3.9,5.8c-1.4,1.9-3,3.7-4.5,5.3c-3.2,3.4-6.6,6.5-10.5,9.2
			c-1.9,1.3-3.9,2.5-6,3.6c-2.1,1.1-4.2,1.9-6.2,2.8c-8.2,3.6-16.3,7.5-24.5,11.1c-8.2,3.6-16.5,6.9-25,9.4
			c-8.5,2.5-17.1,4.3-25.8,5c-4.4,0.4-8.7,0.4-13,0.3c-1.1-0.1-2.2-0.1-3.2-0.2l-3.2-0.3c-2.1-0.2-4.2-0.4-6.3-0.5
			c-8.3-0.5-16.6-0.2-24.4,1.9c-2,0.5-3.9,1.1-5.7,1.8c-1.9,0.7-3.8,1.5-5.7,2.3c-3.9,1.5-7.8,2.7-11.8,3.6c-4,0.9-8,1.5-12,1.9
			c-4,0.4-8,0.4-12,0.3c-4-0.1-7.9-0.4-11.7-0.9c-1-0.1-1.9-0.3-2.9-0.4c-1-0.2-1.9-0.3-2.9-0.5c-1.9-0.3-3.7-0.7-5.6-1
			c-7.4-1.5-14.7-3.1-21.9-4.7c-7.1-1.7-14.1-3.4-20.9-5.3c-13.6-3.7-26.5-7.9-38.6-12.2c-12.1-4.3-23.4-9-33.9-13.6
			c-10.5-4.6-20.1-9.7-28.6-15c-8.5-5.3-15.9-10.6-22.4-15.7c-13-10.2-22.4-19.2-28.7-25.3c-1.6-1.6-2.8-3-3.8-4.1
			c-1-1.1-2-1.9-2.8-2.6c-0.8-0.7-1.5-1.1-1.9-1.5l-1.5-1.1L265.1,262z"/>
	</g>
	<path class="st3" d="M724.5,238.2c-24.4,12.2-79.1,13.4-136.5,12.8c-35.5-0.4-62.5-0.8-100.8-4.3c-35.3-3.2-69.4-10.2-133.7-11.6
		c-65.3-1.4-86,27.8-86,27.8c5.4,1.7,6.1,4,9.6,7.4c22.3,21.9,46.7,40.8,75.3,54c38.1,17.5,77.8,29.9,118.8,38.1
		c20.1,4,40.8,4.2,60-4.1c13.3-5.7,26.4-5.8,40-4.4c20.4,2.2,39.7-2.2,58.4-9.4c13.1-5,25.6-11.4,38.5-16.9
		c7.6-3.2,13.7-8,19.5-14.1c10.2-10.7,14.8-24.1,21.2-36.8c5.1-10.1,9.2-20.7,14-30.9C723.9,243.5,724.5,240.3,724.5,238.2z"/>
	<g>
		<path d="M724.4,238.6c0,0-1.7,0.7-4.8,2.1c-1.6,0.6-3.6,1.3-6,2.1c-1.2,0.3-2.5,0.7-3.9,1.1c-0.7,0.2-1.4,0.4-2.1,0.6
			c-0.7,0.2-1.5,0.3-2.3,0.5c-6.2,1.5-13.9,2.7-22.7,3.7c-2.2,0.2-4.5,0.5-6.8,0.7c-2.4,0.2-4.8,0.4-7.3,0.6c-5,0.3-10.2,0.7-15.7,1
			c-10.9,0.5-22.7,0.8-35.3,1c-12.5,0.1-25.7,0.1-39.4,0c-13.6-0.1-27.8-0.3-42.1-0.8c-14.3-0.5-28.9-1.3-43.4-2.5
			c-14.5-1.1-29.1-2.8-43.3-4.4c-14.2-1.6-28.2-2.9-41.8-3.8c-6.8-0.5-13.5-0.9-20-1.2c-6.5-0.3-12.9-0.6-19.2-0.8
			c-3.1-0.1-6.2-0.2-9.2-0.3c-1.5,0-3-0.1-4.5-0.1l-1.1,0l-0.3,0c0.1,0,0,0-0.1,0l-0.1,0l-0.6,0c-0.7,0-1.5,0-2.2,0
			c-2.9,0-5.8,0-8.7,0c-2.8,0.2-5.5,0.3-8.1,0.4c-10.7,0.8-20.4,2.4-28.8,4.6c-2.1,0.6-4.1,1.2-6,1.8c-1.9,0.6-3.7,1.4-5.5,2
			c-3.5,1.4-6.7,2.8-9.4,4.3c-5.5,2.9-9.6,5.8-12.1,7.9c-1.3,1.1-2.2,2-2.8,2.6c-0.6,0.6-0.9,0.9-0.9,0.9l-0.8-0.6
			c0,0,0.3-0.4,0.8-1.1c0.6-0.7,1.4-1.8,2.6-3c0.6-0.7,1.3-1.3,2.1-2c0.8-0.8,1.6-1.5,2.6-2.3c0.5-0.4,1-0.8,1.5-1.3
			c0.5-0.4,1.1-0.8,1.7-1.2c0.6-0.4,1.2-0.9,1.8-1.3c0.6-0.5,1.3-0.8,2-1.3c5.5-3.5,12.6-7,21.2-9.8c8.6-2.8,18.6-4.8,29.7-5.8
			c2.8-0.2,5.6-0.4,8.5-0.6c2.8,0,5.7,0,8.7-0.1c0.7,0,1.5,0,2.2,0l0.6,0l0.4,0l0.3,0l1.1,0c1.5,0,3,0.1,4.5,0.1
			c3,0.1,6.1,0.2,9.3,0.3c12.5,0.5,25.7,1.5,39.4,2.8c13.6,1.3,27.6,3.2,41.9,5.1c14.2,1.9,28.6,3.9,43.1,5.1
			c14.5,1.3,29,2.3,43.3,2.9c14.3,0.6,28.4,0.9,42,1.2c13.6,0.2,26.8,0.4,39.3,0.4c12.5,0,24.3-0.2,35.2-0.6
			c10.9-0.4,20.9-1.1,29.7-2.1c8.8-1,16.4-2.1,22.6-3.6c0.8-0.2,1.5-0.3,2.3-0.5c0.7-0.2,1.4-0.4,2.1-0.6c1.4-0.4,2.6-0.7,3.8-1
			c2.3-0.8,4.3-1.4,5.9-2c3.1-1.4,4.8-2.1,4.8-2.1L724.4,238.6z"/>
	</g>
	<g>
		<path d="M267.5,261.5c0.3,0,0.6,0.1,1,0.2c0.5,0.1,1,0.2,1.6,0.4c1.2,0.4,2.7,1.1,4.2,2.2c1.5,1.1,3,2.5,4.5,3.9
			c1.5,1.5,3.3,3.2,5.3,5.1c1.9,1.8,4.1,3.8,6.4,5.9c4.7,4.2,10.2,9,16.6,14c12.7,10,29.1,21.2,49.7,30.5
			c20.6,9.5,44.6,18.7,71.5,26.6c6.7,2,13.6,3.8,20.7,5.6c7.1,1.7,14.3,3.4,21.7,4.9c1.8,0.4,3.7,0.7,5.6,1.1
			c0.9,0.2,1.9,0.3,2.8,0.5c0.9,0.1,1.9,0.3,2.8,0.4c3.8,0.5,7.6,0.9,11.4,1c3.9,0.1,7.7,0.1,11.6-0.2c3.9-0.3,7.8-0.9,11.7-1.7
			c3.9-0.9,7.7-2,11.4-3.4c1.8-0.7,3.8-1.5,5.7-2.3c2-0.7,4-1.4,6-1.9c8.2-2.2,16.8-2.5,25.3-1.9c2.1,0.1,4.3,0.3,6.4,0.6l3.2,0.3
			c1.1,0.1,2.1,0.1,3.1,0.2c4.2,0.2,8.4,0.1,12.7-0.2c8.5-0.7,17-2.4,25.3-4.8c8.4-2.4,16.6-5.6,24.7-9.2c8.1-3.5,16.3-7.4,24.6-11
			c2.1-0.9,4.2-1.7,6.1-2.8c2-1,3.9-2.2,5.7-3.4c3.6-2.5,7-5.6,10.1-8.8c1.6-1.7,3-3.3,4.4-5.2c1.4-1.8,2.6-3.7,3.8-5.6
			c2.4-3.9,4.4-7.9,6.4-12.1c2-4.1,3.9-8.4,5.9-12.5c2.1-4.1,4-8.3,5.9-12.5c1.9-4.2,3.7-8.5,5.6-12.8c0.9-2.1,1.9-4.3,2.9-6.4
			c0.2-0.5,0.5-1.1,0.7-1.6c0.2-0.5,0.4-1,0.6-1.5c0.3-1,0.5-2.1,0.6-3.2c0.2-2.1-0.4-4.2-1.5-6.1c-0.5-0.9-1.2-1.8-1.9-2.7
			l-2.3-2.7c-3-3.6-6.1-7.1-9-10.8c-2.9-3.7-5.6-7.6-8-11.7c-1.2-2.1-2.2-4.2-3.2-6.3c-1-2.1-2-4.2-3-6.3
			c-8.2-16.8-17.5-33.1-29.6-47.2c-11.9-14.2-26.1-26.4-42.2-35.2c-8-4.4-16.5-7.9-25.1-10.6c-4.3-1.3-8.7-2.5-13.1-3.4
			c-2.2-0.4-4.4-0.9-6.7-1.3c-2.3-0.5-4.5-1-6.7-1.6c-4.4-1.2-8.7-2.6-12.9-4.3c-4.2-1.6-8.4-3.2-12.6-4.6
			c-8.4-2.8-16.9-5.2-25.5-6.9c-4.3-0.8-8.6-1.5-12.9-2c-4.3-0.5-8.6-0.8-12.9-0.9c-4.3-0.1-8.6,0-12.8,0c-4.3,0-8.5,0.1-12.7,0.2
			c-16.9,0.3-33.2,2.2-49.1,4.5c-7.9,1.2-15.8,2.6-23.4,4.1c-7.6,1.6-14.9,4-22.1,6.2c-3.6,1.1-7.3,2.2-10.8,3.2
			c-3.6,1-7.1,2.1-10.5,3.3c-6.8,2.4-13.3,5.3-19.3,8.8c-3,1.7-5.8,3.6-8.5,5.7c-1.3,1-2.7,2.1-4,3.1c-1.3,1.1-2.6,2.1-3.9,3.2
			c-5.1,4.3-9.9,8.7-14.3,13.2c-8.9,9-16.5,18.4-22.6,27.9c-1.6,2.4-3,4.7-4.4,7.1c-1.3,2.4-2.6,4.7-3.7,7.1c-1.2,2.3-2.1,4.7-3.1,7
			c-0.5,1.2-0.9,2.3-1.3,3.5c-0.4,1.1-0.8,2.3-1.1,3.5c-2.9,9.2-3.7,18-3.3,25.9c0.4,7.9,2.1,14.9,4.1,20.7c0.2,0.8,0.5,1.5,0.7,2.2
			c0.2,0.7,0.5,1.4,0.7,2.2c0.4,1.5,0.8,3,1,4.4c0.5,2.8,0.6,5.4,0.5,7.8c-0.3,4.7-1.5,8-2.2,10.2C268,260.3,267.7,261,267.5,261.5z
			 M265.1,262c0,0,0.2-1.1,0.6-3.3c0.4-2.2,1-5.4,0.8-9.5c-0.1-2.1-0.4-4.3-0.9-6.8c-0.3-1.2-0.7-2.5-1.1-3.8
			c-0.2-0.6-0.5-1.4-0.7-2.1c-0.2-0.7-0.5-1.5-0.8-2.2c-2.2-6.1-3.9-13.6-4.4-22c0-1.1-0.1-2.1-0.1-3.2c0-1.1,0.1-2.2,0.1-3.3
			c0.1-1.1,0-2.2,0.2-3.4c0.1-1.1,0.2-2.3,0.4-3.4c0.6-4.6,1.6-9.4,3.2-14.2c0.4-1.2,0.7-2.4,1.2-3.6c0.5-1.2,0.9-2.4,1.4-3.7
			c1.1-2.4,2.1-4.9,3.4-7.3c1.2-2.5,2.6-4.8,4-7.3c1.5-2.4,3-4.9,4.6-7.2c6.5-9.6,14.4-19.1,23.6-28.1c4.6-4.5,9.6-8.9,14.8-13.2
			c1.3-1.1,2.7-2.1,4-3.2c1.4-1,2.7-2.1,4.1-3.1c2.8-2.1,5.8-4,8.9-5.7c6.2-3.5,12.9-6.3,19.9-8.7c3.5-1.2,7.1-2.2,10.7-3.2
			c3.6-1,7.2-2,10.8-3c7.3-2.1,14.6-4.4,22.4-6c7.7-1.5,15.5-2.8,23.5-4c15.9-2.3,32.4-4.2,49.4-4.5c4.2-0.1,8.5-0.1,12.8-0.2
			c4.3,0,8.6-0.1,12.9,0c4.3,0.1,8.7,0.5,13,0.9c4.3,0.5,8.7,1.2,13,2c8.7,1.7,17.2,4.1,25.7,6.9c4.2,1.4,8.5,3,12.6,4.6
			c4.2,1.6,8.4,3,12.7,4.2c2.2,0.6,4.3,1.1,6.5,1.6c2.2,0.5,4.5,0.9,6.7,1.4c4.5,1,8.9,2.1,13.3,3.5c8.8,2.7,17.3,6.3,25.5,10.8
			c16.3,8.9,30.7,21.3,42.7,35.7c12.2,14.3,21.6,30.8,29.8,47.6c1,2.1,2.1,4.2,3,6.3c1,2.1,2,4.2,3.1,6.2c2.3,4,5,7.8,7.8,11.5
			c2.9,3.7,5.9,7.2,8.9,10.7l2.3,2.7c0.8,0.9,1.5,1.9,2.1,3c1.2,2.1,2,4.7,1.8,7.3c-0.1,1.3-0.3,2.5-0.7,3.7
			c-0.2,0.6-0.4,1.2-0.6,1.7c-0.2,0.6-0.5,1.1-0.7,1.6c-1,2.1-1.9,4.2-2.8,6.4c-1.9,4.3-3.7,8.5-5.6,12.8c-1.9,4.2-3.8,8.5-5.9,12.6
			c-2,4.1-3.9,8.3-5.9,12.5c-2,4.2-4.1,8.3-6.5,12.3c-1.2,2-2.5,3.9-3.9,5.8c-1.4,1.9-3,3.7-4.5,5.3c-3.2,3.4-6.6,6.5-10.5,9.2
			c-1.9,1.3-3.9,2.5-6,3.6c-2.1,1.1-4.2,1.9-6.2,2.8c-8.2,3.6-16.3,7.5-24.5,11.1c-8.2,3.6-16.5,6.9-25,9.4
			c-8.5,2.5-17.1,4.3-25.8,5c-4.4,0.4-8.7,0.4-13,0.3c-1.1-0.1-2.2-0.1-3.2-0.2l-3.2-0.3c-2.1-0.2-4.2-0.4-6.3-0.5
			c-8.3-0.5-16.6-0.2-24.4,1.9c-2,0.5-3.9,1.1-5.7,1.8c-1.9,0.7-3.8,1.5-5.7,2.3c-3.9,1.5-7.8,2.7-11.8,3.6c-4,0.9-8,1.5-12,1.9
			c-4,0.4-8,0.4-12,0.3c-4-0.1-7.9-0.4-11.7-0.9c-1-0.1-1.9-0.3-2.9-0.4c-1-0.2-1.9-0.3-2.9-0.5c-1.9-0.3-3.7-0.7-5.6-1
			c-7.4-1.5-14.7-3.1-21.9-4.7c-7.1-1.7-14.1-3.4-20.9-5.3c-13.6-3.7-26.5-7.9-38.6-12.2c-12.1-4.3-23.4-9-33.9-13.6
			c-10.5-4.6-20.1-9.7-28.6-15c-8.5-5.3-15.9-10.6-22.4-15.7c-13-10.2-22.4-19.2-28.7-25.3c-1.6-1.6-2.8-3-3.8-4.1
			c-1-1.1-2-1.9-2.8-2.6c-0.8-0.7-1.5-1.1-1.9-1.5l-1.5-1.1L265.1,262z"/>
	</g>
</g>
<g id="Layer_3">
	<linearGradient id="SVGID_1_" gradientUnits="userSpaceOnUse" x1="103.2808" y1="487.5852" x2="435.9231" y2="679.6363">
		<stop  offset="0" style="stop-color:#FDDA5A"/>
		<stop  offset="1" style="stop-color:#DDAC27"/>
	</linearGradient>
	<path class="st4" d="M239.4,311.2c-4.7,0.6-17.5,10.4-43.2-5.2c-4.7-2.8-9.4-5.7-14-8.5c-9.3-5.7-18.4-11.6-27.8-16.9
		c-1.7-0.9-5.6,0-7.2,1.5c-2.3,2-4,5.2-5,8.2c-3.2,9.1,4,13.5,9.1,18.9c8.6,9.2,17.2,18.4,25.5,27.8c1.4,1.6,1.6,4.2,2.4,6.4
		c-2.1,0.3-4.2,0.8-6.3,0.8c-7.6-0.2-14.9,1.2-19.6,7.7c-5.6,7.8-8.4,16.7-6.9,26.5c2.4,15.6-0.1,20-14.3,25.7
		c-11.3,4.6-19.8,12.5-26.6,22.5c-12,17.6-23.3,35.8-36.5,52.5c-16.8,21.2-26.7,45-32,71c-2.2,10.7-2.7,21.8-3,32.7
		c-0.5,18.1-2.1,36.5,0.3,54.2c4.3,31.5,16.1,60.9,34.1,87.3c10.1,14.9,21.3,29.3,33.1,43c8.4,9.8,17.7,19.3,28.2,26.6
		c21.2,14.6,46,20.9,71,24.3c21.9,3,42.6-1.7,58.8-18.8c1.1-1.2,4.3-1.3,6.2-0.8c10.3,2.9,20.4,6.5,30.8,9.2
		c5.4,1.4,10.2,2.6,14.6,6.5c4.6,4.1,10.4,7.4,16.2,9.5c28.7,10.1,55.4,2.8,80.8-11.1c14.9-8.2,23.8-22.4,32.6-36.4
		c6.5-10.3,11.7-21.9,19.9-30.5c18.1-18.7,32.4-39.3,37.8-64.9c3.9-18.5,7.6-37.2,8.5-55.9c0.9-17.3-2-34.8-3.4-52.2
		c-1.1-13.4-2.2-26.7-3.6-40c-1.5-14.7-3.6-29.4-4.7-44.2c-2.4-32.3-15.9-59.8-38.1-82.4c-16.8-17.1-37.6-29-61.3-35.2
		c-9.4-2.4-19-4.5-26.9-10.9c-3.1-2.6-6.4-5-9.7-7.3c-18-12.3-38.4-16.3-59.7-16.3c-12.6,0-22.8-4.3-32.3-12.2
		C258.7,317,252.5,310.1,239.4,311.2z"/>
	<path class="st5" d="M178.8,344.8c6.1-1.3,22-6.3,26.8-10.6c6.9-6.1,8.2-14.6,22.2-18c6.7-1.6,17.3-8.6,28.7,0.4
		c5.9,4.7,13.4,12.4,9,8.4c31.7,21.4,52.4,5.1,81.2,20.4c14.4,7.7,22,15.1,27.1,17.8c19.6,10,40.6,12,59.8,23.8
		c69.6,42.9,64.3,128.3,71.2,200.2c3.4,34.9,1.8,69.8-9.2,103.5c-10.9,33.6-33.9,52.7-55.1,85.5c-38.3,59.2-99.4,58.7-125.4,41.3
		c-8-5.3-18.7-9.8-26.4-12.5c16.7-1.2,38.2,0.7,49-12.5c9.1-11.1,7.5-26.2,19.8-38.6c9.2-9.3,29.1-12.4,36.3-20.9
		c7.3-8.7,13.7-10.5,6.2-22c-5.8-8.7-23.8-4.3-26.6-11.6c-5.9-15.3,21-21.4,32.3-25.8c23-8.9,40.6,1.5,39.1-34
		c-0.6-14.5-13.3-39.7-10.2-53.1c1.3-5.4,9.1-5.5,12.2-18.6c5.2-21.5,5.1-35.1-4.1-55.9c-3.9-8.9-15,4.6-15.2-11.2
		c2.8,0.5,11.7-15.9,11.9-16.1c10.4-15.9,19.5-6.7,6.5-31.8c-12.9-24.7-39.5-34.8-62.7-47.7c-16.9-9.4-60.2-47.2-78.6-46
		c-28,1.8-14.3,28.2-4.7,41.1c4.4,6,26.4,23.3,10.1,19.7c-10.2-2.3-13.3-11.6-20.1-16c-12-7.7-24.8-11.6-38.9-10.5
		c-13.5,1-19.7,8.4-33.5,11.5c-14.3,3.2-30-0.6-43.9,2.8c-9.5,2.3-45.1,27.9-46.1,26.1c0.1-4.1,9.3-18.4,11.3-22.9
		c5.1-11.3,6.9-8.8,8.2-27.1C148.6,358.8,146.2,347,178.8,344.8C185,343.5,154.2,346.5,178.8,344.8z"/>
	<path class="st6" d="M146.2,379.3c3.4,2.5,1.5,6.6,3.1,9.7c2.4,4.8-0.6,6.8-0.3,15.7c0.2,4.7-4.2,8.4-6.3,10.8
		c-3.3,3.5-11.7,15.1-15.1,18.4c-8.2,14.4-18.9,27.4-21.9,44.6c-1.3,7.4-4.8,14.5-6.2,22.2c-3,16.5-7.3,32.7-11,49.1
		c-0.8,3.6-0.2,8.9-4.7,9.4c-5.2,0.6-3.3-5.4-4.9-8.3c-0.8-1.4,0.4-4.7-2.2-4.2c-3.8,0.7-8.5,0.7-10.5,5c-3.9,8.6-8,17.1-11.1,26
		c-3.1,8.7-6.1,17.2-6.6,26.9c-0.7,13.5-3,27.4,2.5,39.9c3.8,8.6,9.9,17,11.8,25.9c1.8,8.6,10.8,16.2,5.2,26.4
		c-0.7,1.2-0.6,3.6,0.2,4.7c11.5,17.5,16.4,38.7,30.6,54.5c3.8,4.2,10.7,6.9,4.2,14c-38.1-41.2-67.5-87.8-70.5-144.9
		c-2.4-45.2-1.6-91.6,25.3-131.8c16.2-24.1,33.1-47.7,49.9-71.3c5.1-7.2,11.9-13.7,20.3-15.9C142.5,402,147.9,393.4,146.2,379.3z"/>
	<path class="st5" d="M124.5,790.7c5.9-1.2,11,1.8,15.3,4.7c15.1,9.8,32.1,15,49.1,18.4c9.9,2,21.6,2.1,31.3-5.4
		c4-3.1,9.2-4.8,14.1-6.5c10.6-3.8,13.6-11,10.8-21.4c-0.6-2.1-1.6-5.1,0.5-6.1c2.3-1.2,3.9,1.7,4.9,3.5c4.2,8,10.7,14.2,16.3,21.2
		c-5.2-3.6-8.1-1.4-12.4,2.8c-15.1,14.9-34.8,19.2-54.5,16.3c-24.4-3.7-48.6-10.2-70.2-23.3C127.8,793.6,126.2,792.1,124.5,790.7z"
		/>
	<path class="st7" d="M88.4,604.9c0.2,0.1,0.3,0.2,0.5,0.2C88.7,605.1,88.5,605,88.4,604.9L88.4,604.9z"/>
	<path class="st7" d="M106.7,644c-0.1,0.2-0.2,0.3-0.3,0.5C106.5,644.3,106.6,644.1,106.7,644L106.7,644z"/>
	<g>
		<path class="st8" d="M320.7,700.1c-24.8-7.6-48.8-16.7-70.6-25.7c-4.5-1.8-8.5-3-12.1-3.3c-44.2-1.8-80.9-36.9-80.9-103.9
			c0-62.4,34.2-106.3,87.5-106.3c54.5,0,83.9,45.7,83.9,102.7c0,50.3-19.4,82.7-46.6,94.2v1.2c16.4,5.1,34.2,9.4,49.7,13
			L320.7,700.1z M291,565c0-38.8-15.4-74.8-47.5-74.8c-32.4,0-48.8,35.7-48.8,76c-0.3,40.9,16.7,75.4,48.5,75.4
			C274.7,641.6,291,607.4,291,565z"/>
		<path class="st8" d="M481.2,624c0,17.3,0.6,31.8,1.2,43.9h-31.2l-1.8-20.3h-0.6c-6.1,10-20,23.3-43,23.3
			c-27,0-47.2-17.6-47.2-62.7v-87.8h35.7v82.4c0,23.3,6.7,38.8,24.2,38.8c13.6,0,21.8-10,25.1-18.2c1.2-3.3,1.8-7.6,1.8-12.1v-90.9
			h35.7V624z"/>
		<path class="st9" d="M556.3,479.9c0,11.2-7.9,19.7-20.3,19.7c-11.5,0-19.4-8.5-19.4-19.7s8.2-19.7,20-19.7
			S556.3,468.4,556.3,479.9z M518.5,668V520.5h35.7V668H518.5z"/>
		<path class="st9" d="M591.5,563.8c0-17-0.6-30.3-1.2-43.3h31.2l1.8,20.9h0.6c6.7-11.5,21.8-23.6,43.6-23.6
			c25.1,0,47.9,17.3,47.9,60.3V668h-35.7v-86c0-19.4-6.4-34.8-24.8-34.8c-13,0-22.4,9.1-25.7,20.6c-1.2,3-1.8,7.9-1.8,12.4V668
			h-35.7V563.8z"/>
		<path class="st9" d="M851,664c-6.7,3-20.3,6.7-36.6,6.7c-42.7,0-70.6-28.5-70.6-75.1c0-43.9,28.5-77.8,76.6-77.8
			c12.1,0,24.2,2.7,31.5,6.1l-6.1,27.3c-5.1-2.4-13-5.1-24.5-5.1c-26.3,0-41.2,21.5-41.2,48.5c0,30.3,17.6,47.9,41.2,47.9
			c10.9,0,18.8-2.1,25.1-5.1L851,664z"/>
		<path class="st9" d="M900.1,604.1c0.6,28.5,19.7,39.4,41.5,39.4c15.4,0,26.7-2.7,36.6-6.4l5.1,24.8c-11.5,5.1-28.2,8.8-47.2,8.8
			c-44.8,0-70.6-29.1-70.6-74.2c0-43,24.2-79,66.9-79c42.7,0,58.5,36,58.5,70.6c0,7.3-0.6,12.7-1.2,16.1H900.1z M957.3,578.9
			c0.3-16.7-6.4-36.3-27.3-36.3c-20,0-28.8,20.6-30,36.3H957.3z"/>
	</g>
</g>
<g id="Layer_1">
	<path class="st10" d="M204.8,340.7c9.8-4.3,29.3-25.6,29.3-25.6c-4.7,0.6-14.7,2.4-37.9-9c-4.9-2.4-9.4-5.7-14-8.5
		c-9.3-5.7-18.4-11.6-27.8-16.9c-1.7-0.9-5.6,0-7.2,1.5c-2.3,2-4,5.2-5,8.2c-3.2,9.1,4,13.5,9.1,18.9c8.6,9.2,17.2,18.4,25.5,27.8
		c1.4,1.6,2.9,5.2,3.6,7.3C180.3,344.3,195,345,204.8,340.7z"/>
	<path class="st11" d="M498.3,680.8c3.9-18.5,7.6-37.2,8.5-55.9"/>
	<g>
		<path d="M239.7,313.7c-0.4,0.1-0.8,0.2-1,0.3l-1.1,0.4l-2.7,0.9c-1.9,0.6-3.8,1.1-5.8,1.4c-3.9,0.7-8,0.6-11.9,0
			c-1-0.1-1.9-0.4-2.9-0.6c-1-0.2-1.9-0.4-2.8-0.7l-2.8-0.9l-2.7-1.1c-1.8-0.7-3.5-1.6-5.3-2.4c-0.9-0.4-1.7-0.9-2.5-1.4l-2.5-1.4
			c-3.2-1.9-6.4-3.9-9.5-5.9c-3.2-2-6.4-3.9-9.5-5.9c-6.3-4-12.6-8-18.9-11.8l-2.4-1.4l-1.2-0.7l-0.6-0.3l-0.1,0
			c0,0,0.2,0.1,0.1,0.1l0,0l-0.2-0.1c-0.1-0.1-0.1,0-0.1,0l0,0l-0.1,0c-0.1,0-0.1,0-0.2,0c-0.1,0-0.3,0-0.5,0c-0.3,0-0.7,0-1.1,0.1
			c-0.7,0.1-1.5,0.4-2.1,0.7c-0.3,0.2-0.6,0.3-0.8,0.5l0,0c0.1-0.1,0,0,0,0l-0.1,0.1l-0.3,0.2c-0.1,0.1-0.2,0.2-0.4,0.4
			c-0.5,0.6-1,1.2-1.5,2c-0.5,0.7-0.9,1.5-1.2,2.2c-0.2,0.4-0.4,0.8-0.5,1.2l-0.4,1.1l-0.4,1.3c0,0.1-0.1,0.2-0.1,0.3l0,0.3
			l-0.1,0.5c-0.1,0.4-0.1,0.8-0.1,1.1c0,0.4,0,0.8,0,1.2c0.2,1.5,0.8,3,1.7,4.4c1.9,2.8,4.8,5.2,7.4,8l15.1,16.6l7.5,8.3l1.9,2.1
			l0.9,1c0.3,0.3,0.3,0.3,0.5,0.7c0.2,0.3,0.3,0.5,0.5,0.8c1,2.1,1.2,4,1.7,5.5l0,0l0.6,1.7l-1.8,0.2c-1.9,0.3-3.8,0.8-6.1,0.9
			c-1.1,0-2,0-3,0c-1,0-1.9,0.1-2.9,0.2c-3.8,0.5-7.3,1.7-10,4c-0.3,0.3-0.6,0.6-1,0.9l-0.9,1l-0.8,1.1l-0.8,1.2
			c-1,1.6-1.9,3.3-2.7,5c-1.6,3.4-2.6,7.1-2.9,10.8c-0.2,1.9-0.1,3.7,0,5.6c0.2,1.8,0.6,3.8,0.8,5.8c0.1,1,0.3,2.1,0.3,3.1
			c0,0.5,0.1,1,0.1,1.6l0,1.6c-0.1,2.2-0.3,4.5-1.1,6.7c-0.8,2.3-2.4,4.3-4.1,5.8c-1.7,1.5-3.6,2.8-5.5,3.7c-1.9,1-3.8,1.9-5.6,2.7
			c-0.8,0.4-1.9,0.8-2.6,1.2l-1.2,0.6l-1.2,0.7c-6.6,3.7-12.1,8.9-16.7,15c-1.2,1.5-2.2,3.1-3.3,4.7l-3.2,5
			c-2.1,3.3-4.2,6.7-6.3,10.1c-4.2,6.8-8.4,13.6-12.7,20.4c-2.2,3.4-4.4,6.8-6.7,10.1c-1.1,1.7-2.3,3.3-3.5,5l-3.5,4.8
			c-9,12.5-16.1,26.1-21.4,40.5c-2.6,7.2-4.8,14.6-6.5,22.1l-0.6,2.8l-0.3,1.4l-0.3,1.5c-0.2,1-0.3,1.8-0.5,2.7
			c-0.2,0.9-0.3,1.9-0.4,2.8c-0.5,3.8-0.9,7.6-1.2,11.5c-0.3,3.9-0.4,7.8-0.6,11.7c-0.1,4-0.3,8-0.5,12c-0.4,8-0.8,15.9-0.8,23.6
			c0,3.9,0.1,7.7,0.4,11.6c0.1,1.9,0.3,3.8,0.5,5.7l0.2,1.4c0,0.2,0,0.1,0,0.3l0.1,0.4l0.1,0.7l0.4,3c0.3,2,0.6,3.8,0.9,5.7
			c0.3,1.9,0.7,3.8,1.1,5.7c0.8,3.8,1.7,7.6,2.7,11.3c4.1,15,10,29.4,17.5,43.1c0.9,1.7,1.9,3.4,2.9,5.1c1,1.7,2,3.3,3,5
			c1,1.7,2.1,3.3,3.2,4.9c1.1,1.6,2.2,3.3,3.3,4.9c4.4,6.5,9.1,12.9,13.8,19.2c4.8,6.3,9.7,12.5,14.8,18.6
			c5.1,6.1,10.3,11.9,15.9,17.2c2.8,2.7,5.7,5.2,8.8,7.6c0.8,0.6,1.5,1.2,2.3,1.7l0.6,0.4c0.2,0.1,0.1,0.1,0.2,0.2l0.3,0.2l1.2,0.8
			l2.5,1.7l2.4,1.5c6.5,4,13.7,7.3,21,10c7.3,2.8,14.9,4.9,22.5,6.6c7.7,1.7,15.5,3.1,23.3,4c3.8,0.3,7.6,0.5,11.5,0.3
			c3.8-0.2,7.6-0.7,11.4-1.5c3.7-0.9,7.4-2.1,10.9-3.6c3.5-1.5,6.8-3.5,9.9-5.6c3.1-2.2,6-4.8,8.7-7.5l0.3-0.3
			c0.4-0.4,0.2-0.2,0.4-0.4c0.2-0.2,0.6-0.4,0.8-0.5c0.2-0.1,0.4-0.2,0.6-0.3c0.8-0.3,1.4-0.5,2.1-0.6c1.3-0.2,2.5-0.2,3.8,0
			c0.3,0.1,0.6,0.1,1,0.2l0.8,0.2l1.4,0.4l2.9,0.8c7.7,2.3,15.3,4.8,22.9,6.7c3.7,1,7.8,1.7,11.9,3.4c2,0.9,4.1,2,5.9,3.4l2.4,1.9
			c0.7,0.5,1.5,1.1,2.2,1.6c3.1,2.1,6.4,3.9,9.9,5.2c0.4,0.2,0.9,0.3,1.3,0.5l0.6,0.2l0.7,0.2l2.9,0.9c2,0.6,3.7,0.9,5.5,1.4
			c0.5,0.1,0.9,0.2,1.4,0.3l1.4,0.2l2.8,0.4c1.9,0.3,3.8,0.4,5.7,0.6c1.9,0,3.8,0.2,5.7,0.1c1.9-0.1,3.8,0,5.7-0.3
			c7.6-0.6,15.1-2.3,22.4-4.6c7.3-2.4,14.4-5.6,21.4-9.2l1.3-0.7l0.7-0.3c0.1,0,0.3-0.2,0.2-0.1l0.3-0.2c0.9-0.5,1.8-1,2.6-1.5
			l2.2-1.5l2.3-1.7c3-2.3,5.7-4.9,8.3-7.7c5.2-5.6,9.6-12.1,13.9-18.8l1.6-2.5l1.6-2.5c1-1.7,2-3.3,3.1-5c2-3.4,4-6.9,6.2-10.3
			c2.2-3.4,4.5-6.8,7.1-10.1c2.7-3.3,5.7-5.9,8.3-8.8c5.4-5.7,10.4-11.8,14.9-18.3c9-12.9,15.4-27.4,18.3-42.9
			c3.2-15.6,6.3-31.2,7.5-47c1.4-15.7-0.5-31.4-2.2-47.3l-4.5-47.7c-0.7-7.9-1.8-15.8-2.7-23.7c-0.5-4-1-7.9-1.4-11.9l-0.6-6
			l-0.5-5.9c-1.3-15.7-5.4-30.9-12.3-44.8c-6.9-14-16.5-26.5-27.8-37.3c-11.2-10.6-24.4-19.4-38.7-25.3c-3.6-1.5-7.2-2.8-10.9-4
			c-3.7-1.2-7.4-2.2-11.3-3.1c-3.9-1-7.9-2-11.9-3.5c-2-0.8-4-1.6-5.9-2.6c-1.9-1-3.8-2.2-5.6-3.5l-1.3-1l-1.1-0.9l-2.3-1.8
			c-1.5-1.2-3.1-2.3-4.7-3.4l-1.2-0.8l-1.2-0.8c-0.8-0.5-1.7-1.1-2.5-1.6c-1.6-0.9-3.2-1.9-4.9-2.7c-6.7-3.6-14-6.1-21.5-7.8
			c-7.5-1.7-15.2-2.6-23-3l-6-0.2c-1,0-2.1-0.1-3.2-0.2c-1.1-0.1-2.1-0.2-3.2-0.4c-2.1-0.3-4.2-0.8-6.3-1.4c-2-0.6-4.1-1.3-6-2.2
			c-3.9-1.7-7.5-4-10.9-6.5c-1.7-1.2-3.3-2.6-4.8-3.9l-4.5-3.9c-3-2.5-6-4.7-9.3-6C246.9,313.9,243.4,313.5,239.7,313.7z
			 M239.2,308.6c4.2-0.4,8.8,0,12.9,1.6c2.1,0.8,4,1.8,5.8,2.9c1.8,1.2,3.5,2.4,5.1,3.7l4.6,3.8c0.8,0.6,1.5,1.3,2.3,1.8
			c0.7,0.6,1.5,1.2,2.3,1.7c3.1,2.2,6.4,4,9.8,5.5c1.7,0.7,3.5,1.3,5.3,1.8c1.8,0.4,3.6,0.8,5.4,1c0.9,0.1,1.9,0.2,2.8,0.3
			c0.9,0,1.7,0.1,2.8,0.1l6,0c4.1,0,8.2,0.3,12.3,0.7c4.1,0.4,8.2,1.1,12.2,1.9c4.1,0.8,8,2,12,3.4c3.9,1.4,7.8,3,11.4,5
			c1.8,0.9,3.7,2,5.5,3.1c0.9,0.5,1.7,1.1,2.5,1.6l1.3,0.9l1.3,0.9c1.7,1.2,3.3,2.4,4.9,3.6l2.4,1.9l1.2,1l1.1,0.8
			c5.7,4.3,13,6.5,20.6,8.4c1.9,0.5,3.9,1,5.8,1.6c2,0.5,3.9,1.1,5.9,1.8c3.9,1.3,7.7,2.7,11.5,4.3c15.1,6.4,29,15.7,40.7,27.1
			c11.6,11.4,21.6,24.7,28.7,39.5c3.5,7.4,6.4,15.1,8.4,23c0.5,2,0.9,4,1.4,6c0.4,2,0.7,4,1.1,6c0.3,2,0.6,4.1,0.9,6.1
			c0.2,2,0.4,4,0.6,6l0.5,6l0.5,5.9c0.4,3.9,0.8,7.9,1.2,11.9c0.9,7.9,1.8,15.9,2.5,23.9l4,47.7c0.8,7.9,1.6,15.9,2.1,23.9
			c0.5,8,0.5,16.2-0.3,24.2c-1.3,16.1-4.4,31.9-7.7,47.5l-0.6,2.9l-0.7,3c-0.4,2-1.1,3.9-1.6,5.9c-1.2,3.9-2.6,7.7-4.2,11.5
			c-1.5,3.8-3.4,7.4-5.3,11c-2,3.5-4.1,7-6.4,10.4c-2.2,3.4-4.7,6.6-7.1,9.8c-2.5,3.2-5.1,6.3-7.8,9.3c-2.6,3.1-5.5,5.9-7.8,8.8
			c-2.3,3-4.5,6.3-6.4,9.6c-2,3.4-3.9,6.9-5.8,10.4c-1,1.7-2,3.5-3,5.3l-1.6,2.6l-1.6,2.6c-4.2,6.8-8.6,13.7-14,20.1
			c-2.7,3.2-5.7,6.1-9,8.8l-2.5,1.9l-2.7,1.9c-0.9,0.6-1.7,1-2.6,1.6l-0.3,0.2l-0.4,0.2l-0.7,0.4l-1.3,0.7
			c-7.2,3.9-14.6,7.3-22.5,9.9c-7.8,2.6-16,4.3-24.3,5c-2.1,0.2-4.2,0.1-6.3,0.2c-2.1,0-4.2-0.2-6.3-0.3c-2.1-0.3-4.2-0.4-6.2-0.8
			l-3.1-0.6l-1.5-0.3c-0.5-0.1-1-0.3-1.5-0.4c-2-0.6-4.2-1-6-1.7l-2.8-1l-0.7-0.2c-0.3-0.1-0.3-0.1-0.5-0.2l-0.4-0.1
			c-0.5-0.2-1-0.4-1.5-0.6c-3.9-1.7-7.6-3.8-11.1-6.3c-0.9-0.6-1.7-1.3-2.5-2l-2.2-1.9c-1.3-1.1-2.8-2-4.4-2.7
			c-3.2-1.5-7.1-2.3-11-3.5c-7.8-2.3-15.3-4.9-22.9-7.2l-2.8-0.9l-1.4-0.4l-0.7-0.2c-0.1,0-0.3-0.1-0.5-0.1c-0.7-0.1-1.5-0.1-2.2,0
			c-0.3,0-0.6,0.1-0.8,0.2c-0.1,0-0.1,0-0.1,0c0,0,0.1-0.1,0.1-0.1c0,0-0.3,0.3-0.1,0.1l-0.3,0.3c-2.9,3-6,5.7-9.4,8.1
			c-3.4,2.4-7,4.5-10.8,6.3c-3.8,1.7-7.8,3-11.8,4c-4.1,0.9-8.2,1.5-12.3,1.8c-4.1,0.2-8.2,0.1-12.4-0.2l-3-0.3l-0.7-0.1l-0.8-0.1
			l-1.5-0.2c-2-0.3-4-0.6-6-0.9c-4-0.6-8-1.3-11.9-2.1c-7.9-1.7-15.8-3.7-23.5-6.4c-15.4-5.4-30.1-13.6-42.2-24.7
			c-6.1-5.5-11.7-11.4-17-17.5c-5.3-6-10.5-12.2-15.5-18.5c-5-6.3-9.9-12.7-14.6-19.3c-1.2-1.7-2.3-3.2-3.5-4.9
			c-1.1-1.7-2.3-3.4-3.4-5.1c-1.1-1.7-2.2-3.4-3.3-5.2c-1-1.8-2.1-3.5-3.1-5.3c-8.2-14.1-14.8-29.2-19.5-45
			c-1.2-3.9-2.2-7.9-3.2-11.9c-0.4-2-0.9-4-1.3-6c-0.4-2-0.8-4.1-1.1-6.1l-0.5-3l-0.1-0.7l-0.1-0.8l-0.2-1.6
			c-0.3-2.1-0.5-4.1-0.7-6.2c-0.3-4.1-0.5-8.3-0.6-12.4c-0.1-8.2,0.2-16.3,0.4-24.2c0.1-4,0.2-7.9,0.3-11.9c0.1-4,0.2-8.1,0.5-12.2
			c0.2-4.1,0.6-8.2,1.2-12.4c0.1-1,0.3-2.1,0.4-3.1c0.2-1,0.4-2.2,0.5-3.1l0.3-1.5l0.3-1.6l0.6-3c1.8-8,4.1-16,6.9-23.8
			c5.6-15.6,13.8-30.4,24.3-43.2l2-2.4l1.9-2.2c1.2-1.5,2.5-3,3.7-4.6c2.5-3.1,4.9-6.2,7.3-9.3c4.8-6.3,9.5-12.7,14.1-19.2l6.9-9.8
			l3.5-4.9c1.2-1.7,2.5-3.3,3.8-5c5.3-6.5,11.8-12.1,19.3-16l1.4-0.7l1.5-0.7c1-0.5,1.8-0.8,2.9-1.2c1.8-0.7,3.6-1.4,5.3-2.3
			c3.4-1.7,6.2-3.6,7.4-6.5c1.2-2.9,1.1-6.8,0.8-10.6c-0.2-1.9-0.5-3.9-0.6-6.1c-0.1-2.1-0.1-4.3,0.2-6.4c0.5-4.2,1.7-8.3,3.6-12.1
			c0.9-1.9,2-3.7,3.2-5.4l0.9-1.2c0.4-0.5,0.7-0.9,1-1.3c0.4-0.4,0.8-0.8,1.1-1.2c0.4-0.4,0.8-0.7,1.2-1.1c3.5-2.8,7.8-4.1,12-4.5
			c1-0.1,2.1-0.2,3.1-0.2c1.1,0,2.1,0,3,0c1.7,0,3.7-0.5,5.7-0.7l-1.2,2l0,0c-0.7-2-0.9-3.8-1.6-5.1c-0.1-0.2-0.2-0.3-0.2-0.4
			c0-0.1-0.3-0.4-0.3-0.4l-0.9-1l-1.9-2.1l-7.6-8.2l-15.2-16.4c-2.5-2.6-5.5-4.9-7.9-8.3c-1.2-1.7-2.1-3.7-2.3-5.9
			c-0.1-0.5-0.1-1.1-0.1-1.6c0-0.5,0-1.1,0.1-1.6l0.1-0.8c0-0.3,0.1-0.6,0.2-0.8l0.4-1.3l0.3-0.8l0.3-0.7c0.2-0.5,0.4-0.9,0.6-1.4
			c0.4-0.9,0.9-1.8,1.4-2.7c0.5-0.9,1.2-1.7,1.9-2.5c0.2-0.2,0.4-0.4,0.6-0.6l0.3-0.2l0.1-0.1l0.1-0.1l0.1-0.1c0.5-0.4,1-0.7,1.5-1
			c1-0.5,2-0.9,3.1-1.1c0.5-0.1,1.1-0.2,1.7-0.2c0.3,0,0.6,0,0.9,0c0.2,0,0.3,0,0.5,0.1l0.3,0l0.3,0.1c0.2,0.1,0.5,0.2,0.5,0.2
			l0.2,0.1l0,0l0.2,0.1l0.1,0l0.6,0.3l1.2,0.7l2.4,1.4c6.5,3.7,12.9,7.7,19.2,11.6c3.2,2,6.3,3.9,9.5,5.8c3.2,1.9,6.4,3.9,9.6,5.7
			l2.4,1.3c0.8,0.4,1.6,0.9,2.4,1.3c1.6,0.7,3.2,1.6,4.9,2.2l2.5,1l2.6,0.8c0.8,0.3,1.7,0.4,2.6,0.6c0.9,0.2,1.7,0.4,2.6,0.5
			c3.5,0.5,7,0.5,10.3-0.1c1.7-0.3,3.4-0.8,5-1.3l2.6-0.9l0.7-0.3l0.8-0.3c0.6-0.2,1-0.3,1.5-0.4l0.1,0L239.2,308.6z"/>
	</g>
	<g>
		<path d="M180.7,343.9c0,0,0.3,0,0.7,0.1c0.5,0,1.2,0.1,2.1,0.1c0.9,0,2,0,3.3-0.1c1.3-0.1,2.7-0.2,4.2-0.4
			c0.4-0.1,0.8-0.1,1.2-0.2c0.4-0.1,0.8-0.2,1.2-0.2c0.8-0.1,1.6-0.4,2.5-0.6c1.7-0.4,3.4-1.1,5.1-1.8c0.9-0.4,1.7-0.8,2.5-1.2
			c0.8-0.5,1.6-1,2.5-1.5c0.8-0.6,1.6-1.2,2.4-1.7c0.8-0.6,1.6-1.3,2.4-2c1.6-1.3,3.2-2.6,4.8-3.9c1.6-1.3,3.2-2.6,4.7-3.9
			c3-2.6,5.7-5.1,8-7.2c2.3-2.2,4.2-4,5.5-5.3c1.3-1.3,2.1-2,2.1-2l0.8,0.7c0,0-0.7,0.8-1.8,2.3c-1.2,1.4-2.9,3.5-5,5.9
			c-2.1,2.4-4.6,5.2-7.3,8.1c-1.4,1.5-2.8,3-4.3,4.4c-1.5,1.5-3.1,2.9-4.7,4.4c-0.8,0.7-1.6,1.3-2.5,2c-0.9,0.7-1.8,1.3-2.7,1.9
			c-1,0.5-1.9,1.1-2.9,1.6c-1,0.4-1.9,0.9-2.9,1.3c-2,0.7-3.9,1.3-5.8,1.6c-0.9,0.2-1.9,0.3-2.8,0.4c-0.4,0-0.9,0.1-1.3,0.1
			c-0.4,0-0.9,0-1.3,0c-1.7,0-3.2,0-4.5-0.2c-1.3-0.1-2.5-0.4-3.4-0.6c-0.9-0.2-1.6-0.4-2.1-0.6c-0.5-0.2-0.7-0.3-0.7-0.3
			L180.7,343.9z"/>
	</g>
</g>
<g id="Layer_2" class="st12">
</g>
</svg>
